<svg width="96" height="96" viewBox="0 0 96 96" fill="none" xmlns="http://www.w3.org/2000/svg">
<mask id="mask0" mask-type="alpha" maskUnits="userSpaceOnUse" x="0" y="0" width="96" height="96">
<rect width="96" height="96" fill="white"/>
</mask>
<g mask="url(#mask0)">
<path d="M89.0201 29.1546C88.0574 27.1663 86.9435 25.2474 85.6509 23.4377L71.8421 28.4631C73.4479 30.1067 74.7973 31.9542 75.9007 33.9299L89.0201 29.1546V29.1546ZM27.9793 44.4277L14.1664 49.4531C14.3429 51.6683 14.7255 53.8563 15.2614 56.0001L28.3829 51.2228C27.9562 49.0033 27.8049 46.7165 27.9793 44.4277Z" fill="#C22133"/>
<path d="M58.6339 25.2428C61.507 26.5837 63.9955 28.4123 66.0952 30.5561L79.904 25.5308C76.0787 20.1628 70.8684 15.6776 64.4852 12.6993C44.7432 3.49351 21.1905 12.0646 11.9868 31.8046C9.00648 38.1919 7.89883 44.9765 8.42008 51.5467L22.2309 46.5213C22.46 43.5284 23.1893 40.5291 24.5282 37.6539C30.5099 24.8288 45.8088 19.2632 58.6339 25.2428Z" fill="#DB212E"/>
<path d="M73.3626 50.4778C73.1419 53.4687 72.3874 56.4679 71.0443 59.3453C65.0648 72.1725 49.7637 77.738 36.9408 71.7584C34.0634 70.4154 31.556 68.6015 29.4647 66.4535L15.6833 71.4684C19.5001 76.8363 24.7042 81.3236 31.0915 84.304C50.8336 93.5077 74.382 84.9366 83.5878 65.1945C86.5702 58.8114 87.6695 52.0268 87.144 45.463L73.3626 50.4778V50.4778Z" fill="#DB212E"/>
<path d="M76.7584 33.618L63.637 38.3933C66.075 42.7608 67.2268 47.7883 66.8485 52.8452L80.6299 47.8324C80.2348 42.8869 78.917 38.0591 76.7584 33.618V33.618ZM16.1215 55.6851L3 60.4646C4.20432 65.2482 6.2956 69.7944 9.17085 73.8403L22.9502 68.8234C19.4129 65.1915 17.061 60.5949 16.1215 55.6851Z" fill="#EB2126"/>
<path d="M87.02 25.5166C86.5849 24.8104 86.1331 24.1147 85.6518 23.4379L71.843 28.4633C72.4504 29.0854 73.0095 29.7454 73.5434 30.4222L87.02 25.5166ZM27.9266 47.2009C27.8929 46.2804 27.9076 45.3556 27.979 44.4287L14.1661 49.4541C14.2375 50.3389 14.3489 51.2175 14.4813 52.0939L27.9265 47.2009H27.9266Z" fill="#AD213B"/>
<path d="M87.1431 45.4628L73.3617 50.4776C73.2166 52.4617 72.83 54.45 72.1973 56.4047L87.1978 50.9358C87.305 49.1031 87.2881 47.2745 87.1431 45.4628ZM15.6845 71.4703C16.7459 72.9647 17.9208 74.3897 19.1966 75.7348L34.1991 70.2639C32.4462 69.1667 30.8615 67.8867 29.4638 66.4533L15.6845 71.4703Z" fill="#BA2133"/>
</g>
</svg>
